<svg xmlns="http://www.w3.org/2000/svg" width="800" height="450" viewBox="0 0 800 450">
  <defs>
    <linearGradient id="bgGrad" x1="0%" y1="0%" x2="100%" y2="100%">
      <stop offset="0%" style="stop-color:#FF5D01;stop-opacity:1" />
      <stop offset="100%" style="stop-color:#8B5CF6;stop-opacity:1" />
    </linearGradient>
  </defs>
  <rect width="800" height="450" fill="url(#bgGrad)"/>
  <!-- Astro rocket logo stylized -->
  <g transform="translate(320, 60)">
    <ellipse cx="80" cy="150" rx="60" ry="100" fill="#ffffff" fill-opacity="0.9"/>
    <ellipse cx="80" cy="130" rx="25" ry="35" fill="#1e1e2e" fill-opacity="0.4"/>
    <!-- Flames -->
    <ellipse cx="50" cy="260" rx="15" ry="30" fill="#FF5D01" fill-opacity="0.8"/>
    <ellipse cx="80" cy="270" rx="18" ry="40" fill="#F97316" fill-opacity="0.9"/>
    <ellipse cx="110" cy="260" rx="15" ry="30" fill="#FF5D01" fill-opacity="0.8"/>
    <!-- Stars -->
    <circle cx="-80" cy="50" r="4" fill="#ffffff" fill-opacity="0.8"/>
    <circle cx="-60" cy="120" r="3" fill="#ffffff" fill-opacity="0.6"/>
    <circle cx="240" cy="80" r="5" fill="#ffffff" fill-opacity="0.8"/>
    <circle cx="220" cy="150" r="3" fill="#ffffff" fill-opacity="0.6"/>
    <circle cx="-40" cy="200" r="4" fill="#ffffff" fill-opacity="0.7"/>
    <circle cx="200" cy="30" r="3" fill="#ffffff" fill-opacity="0.5"/>
  </g>
  <!-- Guide book elements -->
  <rect x="150" y="320" width="500" height="70" rx="8" fill="#1e1e2e" fill-opacity="0.4"/>
  <text x="180" y="350" fill="#ffffff" font-family="monospace" font-size="14" fill-opacity="0.9">npm create astro@latest</text>
  <rect x="180" y="365" width="120" height="8" rx="2" fill="#4ADE80" fill-opacity="0.6"/>
  <text x="400" y="420" text-anchor="middle" fill="#ffffff" font-family="system-ui" font-size="16" font-weight="600">Guía Completa de Astro 2024</text>
</svg>
