<svg xmlns="http://www.w3.org/2000/svg" width="800" height="450" viewBox="0 0 800 450">
  <defs>
    <linearGradient id="bgGrad" x1="0%" y1="0%" x2="100%" y2="100%">
      <stop offset="0%" style="stop-color:#06B6D4;stop-opacity:1" />
      <stop offset="100%" style="stop-color:#3B82F6;stop-opacity:1" />
    </linearGradient>
  </defs>
  <rect width="800" height="450" fill="url(#bgGrad)"/>
  <!-- Tailwind logo wave -->
  <g transform="translate(200, 80)">
    <path d="M0 100 Q100 0 200 100 Q300 200 400 100" stroke="#ffffff" stroke-width="40" fill="none" stroke-opacity="0.3" stroke-linecap="round"/>
    <path d="M0 160 Q100 60 200 160 Q300 260 400 160" stroke="#ffffff" stroke-width="30" fill="none" stroke-opacity="0.2" stroke-linecap="round"/>
  </g>
  <!-- Code snippets -->
  <rect x="100" y="260" width="280" height="130" rx="8" fill="#1e1e2e" fill-opacity="0.5"/>
  <text x="120" y="290" fill="#9CA3AF" font-family="monospace" font-size="11">&lt;div class="</text>
  <text x="120" y="310" fill="#38BDF8" font-family="monospace" font-size="11">  flex items-center</text>
  <text x="120" y="330" fill="#38BDF8" font-family="monospace" font-size="11">  gap-4 p-6</text>
  <text x="120" y="350" fill="#38BDF8" font-family="monospace" font-size="11">  bg-gradient-to-r</text>
  <text x="120" y="370" fill="#9CA3AF" font-family="monospace" font-size="11">"&gt;</text>
  <!-- Tips icons -->
  <rect x="420" y="260" width="280" height="130" rx="8" fill="#ffffff" fill-opacity="0.15"/>
  <text x="440" y="290" fill="#ffffff" font-family="system-ui" font-size="14" font-weight="600">💡 Tips & Trucos</text>
  <rect x="440" y="305" width="240" height="12" rx="3" fill="#ffffff" fill-opacity="0.3"/>
  <rect x="440" y="325" width="220" height="12" rx="3" fill="#ffffff" fill-opacity="0.3"/>
  <rect x="440" y="345" width="200" height="12" rx="3" fill="#ffffff" fill-opacity="0.3"/>
  <rect x="440" y="365" width="230" height="12" rx="3" fill="#ffffff" fill-opacity="0.3"/>
  <text x="400" y="420" text-anchor="middle" fill="#ffffff" font-family="system-ui" font-size="16" font-weight="600">Tailwind CSS Tips & Trucos</text>
</svg>
